<?xml version="1.0" standalone="no"?>
<!DOCTYPE svg PUBLIC "-//W3C//DTD SVG 20010904//EN"
 "http://www.w3.org/TR/2001/REC-SVG-20010904/DTD/svg10.dtd">
<svg version="1.0" xmlns="http://www.w3.org/2000/svg"
 width="2192.000000pt" height="2629.000000pt" viewBox="0 0 2192.000000 2629.000000"
 preserveAspectRatio="xMidYMid meet">

<g transform="translate(0.000000,2629.000000) scale(0.100000,-0.100000)"
fill="#000000" stroke="none">
<path d="M12962 26265 c-92 -35 -236 -112 -301 -160 -32 -23 -82 -71 -112
-106 -30 -34 -75 -86 -102 -113 l-47 -51 -22 30 c-44 60 -144 158 -186 182
-41 24 -49 25 -140 20 -113 -7 -298 -53 -387 -97 -107 -52 -331 -207 -404
-279 -39 -38 -91 -101 -115 -139 l-45 -70 -163 -5 c-232 -7 -346 -42 -458
-142 -86 -77 -134 -93 -340 -120 -161 -21 -216 -49 -340 -170 l-96 -95 -149
-55 c-312 -116 -397 -178 -506 -369 -37 -66 -45 -74 -78 -80 -88 -14 -148 4
-230 73 -80 66 -108 74 -141 41 -37 -37 -20 -101 47 -179 l35 -41 -53 20 c-28
12 -82 39 -120 61 -37 22 -91 49 -121 61 -69 26 -170 28 -220 4 l-37 -18 38
-51 c39 -54 71 -74 245 -152 201 -90 255 -182 256 -433 0 -98 -1 -103 -24
-113 -33 -16 -88 11 -216 106 -231 171 -322 181 -724 84 -108 -27 -175 -48
-187 -60 -26 -26 -24 -61 4 -87 20 -19 42 -23 153 -32 108 -9 305 -47 320 -63
2 -2 -37 -67 -87 -143 -162 -247 -214 -380 -207 -528 3 -45 8 -88 11 -96 5
-11 -8 -24 -46 -47 -30 -18 -70 -50 -90 -72 -63 -70 -86 -203 -49 -286 l18
-40 -33 -46 c-18 -26 -42 -68 -54 -94 -38 -86 -22 -241 38 -364 l26 -54 -31
-181 c-50 -287 -54 -315 -53 -432 1 -186 20 -273 69 -317 20 -19 20 -19 -17
-69 -50 -65 -60 -98 -73 -252 -9 -96 -8 -166 0 -280 13 -168 30 -254 67 -337
45 -102 67 -212 115 -584 36 -281 50 -340 131 -528 57 -134 89 -230 89 -270 0
-14 -5 -17 -17 -12 -121 46 -359 76 -447 56 -117 -26 -176 -107 -227 -308
-126 -499 -148 -1062 -63 -1628 49 -327 150 -615 285 -810 145 -211 384 -381
610 -435 102 -24 274 -27 367 -5 73 17 168 56 224 91 22 14 42 24 44 22 2 -2
8 -58 14 -124 25 -275 99 -629 182 -864 l51 -145 4 -382 4 -383 -38 0 c-59 0
-274 -37 -405 -71 -528 -133 -1115 -428 -1663 -834 -661 -490 -1279 -1208
-1626 -1887 l-59 -117 -12 -205 c-20 -338 10 -776 77 -1136 13 -69 20 -128 17
-131 -4 -4 -95 -47 -202 -97 -524 -242 -1174 -564 -1460 -723 -424 -236 -1173
-722 -1542 -1000 -125 -95 -265 -213 -473 -400 -378 -339 -579 -613 -846
-1154 -350 -709 -451 -1078 -584 -2130 -19 -154 -35 -290 -35 -302 0 -51 739
-659 1035 -852 374 -243 944 -563 1485 -835 434 -217 634 -303 1160 -499 1024
-382 2125 -700 3048 -881 467 -92 1511 -254 1967 -305 982 -111 2530 -186
3125 -152 1109 64 2754 325 3781 600 687 185 1656 508 2294 766 127 51 457
190 735 308 1507 642 2510 1099 2743 1249 34 23 117 72 184 110 l121 68 7 118
c18 282 -6 771 -50 1052 -56 349 -213 788 -454 1270 -232 464 -609 941 -956
1209 -110 84 -508 355 -652 442 l-60 36 -6 101 c-12 179 -45 298 -136 487
l-58 120 9 75 c9 85 -2 225 -27 320 -23 95 -105 254 -175 340 -33 41 -62 84
-65 95 -3 11 -46 196 -96 410 -139 598 -666 2813 -685 2875 -32 108 -98 191
-220 279 -159 113 -328 180 -418 167 -99 -15 -153 -89 -143 -198 10 -112 82
-213 223 -314 59 -42 239 -134 262 -134 6 0 14 -5 18 -11 4 -7 75 -616 158
-1354 l151 -1342 -140 -5 c-218 -8 -454 -70 -713 -187 l-107 -48 -83 165
c-190 377 -478 845 -646 1052 -209 256 -576 550 -954 764 l-121 69 40 46 c210
240 406 497 699 916 474 676 735 1108 1039 1715 297 596 408 959 490 1605 60
476 97 1079 121 2000 5 220 13 450 16 512 l6 112 54 26 c108 53 173 140 195
262 14 73 29 103 141 271 148 223 198 354 199 517 1 137 -27 230 -95 325 l-34
47 32 11 c55 20 71 62 70 177 -1 61 -8 119 -17 150 l-16 50 34 35 c47 49 55
76 55 193 0 174 -43 295 -128 366 -46 38 -92 119 -92 160 0 58 22 100 94 179
107 119 109 169 12 296 -20 26 -36 52 -36 57 0 4 36 34 80 64 86 61 120 97
120 127 0 29 -44 66 -94 79 -41 10 -46 15 -52 47 -7 38 -1 192 16 370 8 90 7
126 -4 180 -40 194 -171 421 -261 453 -29 11 -36 19 -41 48 -15 89 -36 165
-60 223 -24 56 -28 81 -34 223 -6 138 -11 169 -33 227 -58 150 -151 253 -291
324 -50 25 -99 53 -108 61 -10 9 -36 53 -59 99 -50 102 -100 146 -269 233
-138 71 -183 86 -319 106 -58 8 -115 22 -127 30 -30 19 -48 77 -40 128 11 70
17 73 70 33 25 -19 71 -50 101 -68 41 -24 55 -39 55 -55 0 -30 34 -63 65 -63
103 0 153 134 106 288 -24 82 -97 195 -168 264 -50 48 -391 297 -546 400 -50
32 -83 60 -75 62 36 13 339 38 385 32 29 -3 53 -3 53 0 0 3 -12 40 -27 82 -23
67 -36 86 -97 147 -131 129 -254 169 -382 124 l-67 -24 -36 45 c-20 25 -55 64
-78 86 -67 68 -131 75 -447 49 -99 -8 -180 -14 -181 -12 -1 1 -7 48 -13 105
-11 99 -27 147 -60 185 -14 15 -13 22 3 70 29 86 4 154 -63 170 -30 7 -104
-15 -150 -46 -98 -64 -91 -61 -85 -39 12 49 72 86 193 122 90 26 100 34 100
71 0 35 -24 49 -84 49 -49 0 -224 -32 -298 -54 l-46 -15 19 42 c25 57 25 131
-1 157 -31 31 -63 24 -122 -23 -80 -66 -124 -90 -229 -130 -242 -90 -438 -87
-581 10 -30 21 -84 57 -119 81 -99 67 -148 77 -304 63 -253 -23 -379 -51 -464
-103 -20 -12 -76 -61 -126 -108 -97 -93 -213 -185 -221 -177 -13 13 -15 88 -4
122 7 21 43 70 81 112 119 128 139 164 112 202 -19 28 -71 27 -151 -4z m-1095
-4570 c267 0 267 0 315 -96 37 -73 82 -113 117 -104 44 10 64 43 59 97 -3 27
-4 48 -3 48 2 0 50 -20 108 -45 361 -154 621 -217 1092 -265 523 -53 698 -93
838 -188 65 -45 93 -94 122 -212 15 -57 44 -167 66 -243 61 -217 53 -266 -54
-346 -63 -46 -97 -86 -97 -113 0 -61 56 -85 145 -63 126 32 228 78 273 123 52
52 114 176 142 286 23 90 25 142 8 197 -10 35 -9 42 14 76 14 21 54 70 88 108
142 161 194 378 132 556 l-20 56 77 -24 c125 -40 256 -58 322 -44 57 12 71 22
138 102 74 88 213 122 321 79 37 -15 85 -24 145 -27 66 -4 93 -9 103 -21 19
-25 14 -133 -13 -264 -58 -282 -18 -363 198 -398 200 -33 367 19 413 127 20
46 19 241 -1 263 -13 14 -11 20 17 54 l31 38 28 -53 c15 -30 31 -73 35 -97 5
-36 2 -48 -20 -80 -57 -83 -19 -173 79 -187 l43 -7 -14 -34 c-21 -51 -18 -140
8 -193 13 -27 67 -90 130 -154 81 -81 130 -141 195 -240 102 -157 130 -221
188 -432 109 -395 162 -852 171 -1470 l5 -350 -25 94 c-14 51 -35 112 -46 136
-22 46 -100 109 -190 155 -77 38 -315 127 -375 140 -70 14 -376 54 -650 85
-218 25 -1004 69 -1032 58 -7 -3 -13 -11 -13 -18 0 -6 -48 -137 -106 -291
-156 -410 -236 -675 -250 -826 -12 -141 65 -859 156 -1453 52 -340 72 -517 77
-710 l5 -190 -31 -78 c-17 -43 -41 -97 -52 -119 -31 -61 -104 -133 -157 -156
-66 -28 -208 -42 -452 -43 -163 -1 -210 -4 -214 -14 -5 -15 18 -20 164 -35
308 -30 486 -22 586 27 113 55 242 240 275 393 25 117 -6 463 -77 870 -62 358
-113 663 -148 900 -83 550 -84 622 -12 904 25 99 47 180 49 182 1 2 124 12
272 24 448 34 625 50 740 66 155 21 638 29 867 15 265 -16 402 -58 546 -166
36 -27 69 -45 77 -41 20 7 20 -202 0 -864 -66 -2212 -166 -2746 -690 -3695
-236 -428 -788 -1321 -998 -1615 -293 -409 -618 -803 -759 -918 -457 -373
-1067 -541 -1657 -456 -571 83 -1499 525 -2196 1046 -245 182 -463 367 -759
639 -454 417 -808 838 -1317 1564 -274 392 -397 610 -492 875 -85 235 -162
598 -187 874 -18 202 -33 266 -69 285 -32 18 -42 14 -128 -48 -45 -32 -111
-70 -146 -84 -269 -108 -585 -23 -827 222 -235 237 -359 600 -410 1196 -13
157 -13 441 1 602 16 196 67 587 85 656 23 89 63 165 103 196 32 24 41 26 140
25 86 -1 122 -6 191 -28 93 -30 198 -83 302 -153 57 -37 69 -50 78 -84 5 -21
15 -58 21 -81 38 -149 179 -265 296 -243 30 5 34 4 29 -12 -53 -177 -20 -330
84 -383 49 -25 105 -26 151 -2 l35 18 -22 -116 c-12 -63 -29 -142 -39 -175
-24 -79 -25 -195 -2 -261 32 -93 141 -170 297 -210 36 -9 66 -17 68 -19 1 -1
9 -29 18 -61 32 -123 149 -277 198 -258 23 9 20 48 -9 135 -39 113 -83 287
-90 354 -5 44 2 109 24 245 38 224 38 224 58 185 20 -40 41 -55 75 -55 40 0
57 33 77 147 l17 98 35 6 c67 10 101 47 159 171 77 165 121 376 101 485 -6 30
-22 74 -36 97 -55 91 -54 87 -57 367 -3 225 -6 270 -21 303 -22 50 -18 54 97
96 112 41 150 63 175 104 28 45 51 189 51 320 0 152 -24 233 -91 316 -17 20
-29 46 -29 63 l0 29 34 -30 c42 -37 82 -47 134 -33 51 14 86 42 117 96 33 55
34 98 11 254 -20 131 -18 278 4 355 8 26 37 66 86 117 105 110 123 162 85 244
-10 22 -39 63 -64 91 l-46 51 52 -14 c98 -25 274 -13 416 29 96 28 151 76 151
132 0 58 -37 88 -145 117 l-90 24 85 7 c236 21 320 41 399 98 22 17 43 40 46
52 6 22 10 23 113 23 l108 0 69 41 c103 62 251 102 315 86 14 -4 129 -7 257
-7z m4888 -166 c4 -6 11 -40 15 -76 5 -36 16 -73 25 -83 15 -17 14 -19 -14
-39 -16 -12 -49 -28 -72 -36 -49 -18 -139 -20 -139 -4 0 21 92 189 120 219 29
31 54 38 65 19z m-6665 -634 c0 -5 -9 -21 -20 -35 l-20 -25 0 60 0 60 20 -25
c11 -14 20 -29 20 -35z m-935 -6989 c213 -330 486 -708 710 -981 549 -670
1325 -1359 2020 -1792 524 -327 1071 -575 1540 -698 223 -59 304 -69 560 -69
240 -1 345 10 533 56 46 11 86 18 89 15 2 -3 9 -99 14 -214 19 -451 76 -821
175 -1134 48 -151 82 -219 154 -309 33 -41 60 -83 60 -92 0 -62 -111 -247
-240 -398 -114 -133 -325 -344 -435 -433 -344 -278 -627 -377 -1050 -364 -193
5 -295 21 -548 82 -698 167 -1740 579 -2277 900 -512 306 -1133 784 -1554
1195 -174 170 -275 287 -366 425 -101 154 -98 135 -46 321 247 877 396 1734
461 2642 19 271 37 897 30 1027 l-6 100 33 -54 c18 -29 83 -130 143 -225z
m-540 -2408 c-49 -253 -105 -501 -114 -511 -4 -4 -24 12 -44 36 -52 64 -137
119 -185 121 -70 1 -313 -131 -635 -346 -308 -205 -463 -337 -513 -435 -27
-51 -35 -59 -99 -89 -62 -29 -71 -31 -77 -16 -10 26 -9 253 2 313 9 49 17 61
82 124 94 91 292 239 455 340 70 43 263 167 428 275 444 291 480 311 630 350
55 14 101 25 103 24 2 -1 -13 -85 -33 -186z m-274 -459 c24 -17 67 -54 95 -81
50 -48 51 -51 42 -87 -5 -20 -29 -76 -53 -126 -25 -49 -50 -112 -56 -140 -18
-79 -21 -83 -32 -40 -12 52 -14 279 -3 376 8 71 7 78 -13 98 -11 11 -31 21
-44 21 -45 0 -58 -21 -74 -121 l-16 -95 -91 -38 c-272 -114 -541 -286 -776
-499 -58 -53 -106 -94 -108 -92 -10 9 46 121 80 159 147 168 894 696 984 696
12 0 41 -14 65 -31z m-137 -446 c9 -60 13 -109 8 -111 -4 -1 -71 -33 -147 -70
-273 -134 -498 -289 -707 -490 l-86 -83 -20 54 c-46 121 -49 112 79 240 210
209 417 357 684 488 88 44 163 79 166 79 3 0 14 -48 23 -107z m91 -317 l32
-74 -86 -59 c-195 -132 -432 -327 -631 -519 l-115 -111 -26 31 c-14 17 -50 62
-78 100 l-52 70 78 79 c188 190 427 362 681 489 85 43 157 76 160 74 2 -3 19
-39 37 -80z m153 -279 c41 -63 49 -83 39 -89 -32 -18 -251 -189 -367 -287 -69
-58 -186 -165 -260 -237 l-135 -132 -65 73 c-35 41 -66 78 -68 83 -4 13 237
244 373 357 165 138 407 316 424 314 3 0 30 -37 59 -82z m210 -267 l70 -76
-115 -84 c-161 -118 -364 -288 -521 -437 l-134 -126 -69 69 c-38 38 -69 74
-69 80 0 15 267 266 415 389 139 117 336 266 345 263 4 -2 39 -37 78 -78z
m249 -325 c-24 -22 -169 -158 -323 -301 -153 -144 -293 -273 -310 -288 l-32
-26 -81 66 c-44 37 -81 70 -81 74 0 11 187 188 313 297 62 52 183 149 270 214
l159 119 64 -58 65 -57 -44 -40z m7534 85 c121 -37 279 -142 462 -304 153
-136 288 -294 260 -303 -32 -11 -230 -137 -329 -208 -275 -200 -493 -390 -810
-706 l-231 -230 -13 153 c-14 175 -14 289 0 508 12 182 35 359 57 450 34 137
154 414 223 515 39 56 115 123 154 134 55 16 160 12 227 -9z m-7331 -188 l54
-49 -140 -154 c-111 -122 -468 -522 -480 -537 -1 -2 -40 25 -85 60 -46 34 -87
66 -93 70 -6 4 -3 15 9 29 35 39 667 629 674 629 4 0 31 -22 61 -48z m240
-201 l34 -29 -80 -85 c-143 -151 -364 -413 -467 -555 -23 -31 -43 -49 -50 -45
-40 23 -127 87 -127 94 0 9 153 185 418 481 l186 206 26 -19 c14 -10 41 -32
60 -48z m207 -165 l52 -39 -60 -76 c-33 -42 -144 -186 -247 -320 -103 -134
-196 -256 -208 -269 l-21 -25 -64 38 c-35 21 -72 44 -82 50 -16 11 -9 23 70
126 180 236 479 571 498 560 6 -3 34 -24 62 -45z m220 -166 c29 -23 53 -43 53
-47 0 -14 -466 -673 -477 -673 -11 0 -153 83 -153 90 0 4 73 104 163 222 262
345 341 447 351 447 5 1 33 -17 63 -39z m-3282 -39 c247 -53 651 -228 878
-381 118 -79 425 -318 532 -413 l40 -36 -63 -1 c-35 0 -127 -7 -205 -16 -465
-51 -836 -163 -1139 -343 -158 -94 -231 -152 -380 -302 l-137 -137 -20 62
c-61 184 -90 391 -98 696 -6 256 5 396 43 526 88 305 252 408 549 345z m3537
-139 l37 -24 -18 -27 c-10 -14 -49 -78 -87 -141 -109 -186 -306 -491 -319
-496 -10 -4 -165 72 -165 81 0 1 57 83 128 182 70 98 174 247 231 331 l105
152 25 -17 c14 -9 43 -27 63 -41z m5240 32 c99 -24 230 -102 258 -154 7 -13
-12 -5 -62 25 -80 50 -191 98 -269 119 -29 7 -55 18 -57 25 -5 14 30 10 130
-15z m-4982 -206 c0 -19 -129 -308 -184 -413 -51 -97 -138 -248 -151 -263 -2
-2 -44 17 -94 43 -62 31 -89 50 -85 58 4 7 43 67 86 135 99 153 308 503 308
514 0 4 27 -9 60 -29 33 -21 60 -41 60 -45z m4886 61 c131 -40 346 -168 422
-252 27 -29 28 -27 -40 -134 l-39 -62 -92 95 c-90 94 -220 199 -327 263 -30
19 -56 35 -58 36 -2 1 5 19 14 39 21 42 29 43 120 15z m-4672 -180 c50 -28 93
-53 95 -55 8 -7 -75 -205 -135 -325 -61 -121 -161 -290 -188 -317 -11 -11 -29
-6 -105 33 l-92 46 22 37 c101 171 220 412 280 570 13 34 26 62 28 62 3 0 46
-23 95 -51z m4520 -24 c138 -83 266 -190 360 -299 53 -63 54 -59 -11 -134
l-28 -33 -74 90 c-74 91 -173 191 -290 292 l-64 56 19 31 c10 18 21 32 24 32
4 0 32 -16 64 -35z m-4194 -209 c-29 -83 -75 -194 -123 -298 -51 -108 -153
-294 -166 -303 -5 -3 -41 10 -79 28 l-69 34 59 94 c94 150 205 380 261 542 6
15 12 14 71 -15 l64 -31 -18 -51z m4127 -48 c127 -129 283 -306 283 -323 0
-10 -150 -155 -160 -155 -3 0 -18 26 -34 58 -64 131 -161 272 -261 380 l-58
63 49 50 c26 27 51 49 54 49 3 0 60 -55 127 -122z m2003 7 c0 -55 -4 -95 -10
-95 -11 0 -14 13 -34 118 l-14 72 29 0 29 0 0 -95z m-120 -5 c0 -87 -1 -90
-22 -90 -13 0 -32 -3 -44 -6 -19 -5 -23 1 -38 60 -9 36 -16 69 -16 75 0 8 91
49 113 50 4 1 7 -39 7 -89z m-5782 5 c66 -27 72 -32 67 -53 -20 -82 -299 -632
-320 -632 -18 0 -135 54 -135 63 0 4 20 43 45 86 76 132 187 378 249 554 3 10
10 17 14 15 5 -2 41 -16 80 -33z m5598 -103 c-3 -3 -28 -7 -54 -10 -47 -4 -50
-3 -56 23 -8 32 -8 32 59 73 l50 31 3 -56 c2 -30 1 -58 -2 -61z m401 41 c-3
-10 -5 -4 -5 12 0 17 2 24 5 18 2 -7 2 -21 0 -30z m-5709 -55 c46 -18 86 -38
89 -45 13 -32 -89 -326 -168 -485 -81 -164 -98 -190 -123 -182 -38 12 -191 75
-199 83 -5 5 18 55 49 112 65 118 174 344 225 466 19 46 36 83 38 83 2 0 42
-14 89 -32z m3349 -34 c96 -109 197 -262 249 -380 l24 -54 -76 -56 c-41 -31
-77 -54 -79 -52 -2 1 -17 38 -34 80 -47 120 -113 245 -184 351 l-65 97 44 40
c24 22 48 40 53 40 5 0 36 -30 68 -66z m1797 -66 l5 -68 -48 0 -48 0 -16 57
c-12 44 -13 60 -4 65 7 3 30 20 52 37 l40 30 6 -27 c4 -15 9 -57 13 -94z m176
6 l0 -65 -37 3 c-35 3 -38 6 -50 47 -7 24 -15 52 -18 62 -6 17 0 19 49 19 l56
0 0 -66z m170 -4 c0 -57 -1 -60 -24 -60 -20 0 -25 8 -39 60 l-15 60 39 0 39 0
0 -60z m74 -27 c5 -35 3 -43 -9 -43 -12 0 -15 14 -14 68 1 70 9 61 23 -25z
m43 65 c-3 -8 -6 -5 -6 6 -1 11 2 17 5 13 3 -3 4 -12 1 -19z m63 -58 c-6 -10
-9 1 -9 35 1 48 1 49 9 15 5 -19 4 -41 0 -50z m-5352 0 c47 -17 88 -32 89 -34
4 -4 -48 -155 -85 -246 -49 -122 -121 -280 -163 -357 l-40 -71 -77 25 c-42 14
-80 29 -85 32 -4 4 15 47 43 97 66 118 141 302 180 444 18 63 34 121 36 128 5
16 3 16 102 -18z m4665 -127 l7 -63 -58 0 -57 0 -16 54 -16 55 61 50 61 49 6
-41 c3 -23 9 -70 12 -104z m401 115 c4 -17 2 -28 -4 -28 -5 0 -10 14 -10 32 0
36 4 35 14 -4z m-2204 -163 c60 -100 145 -286 156 -342 6 -28 2 -32 -81 -81
-85 -51 -105 -56 -105 -26 0 35 -87 270 -141 383 -56 116 -59 124 -42 136 10
7 38 29 63 48 l45 36 23 -27 c12 -15 49 -72 82 -127z m-2557 68 l78 -28 -6
-35 c-31 -173 -216 -649 -248 -637 -7 2 -51 15 -99 28 -49 13 -88 27 -88 32 0
4 20 48 45 97 65 130 158 350 196 468 18 56 35 102 38 102 3 0 41 -12 84 -27z
m4515 18 c8 -4 16 -27 19 -50 l6 -41 -36 0 c-34 0 -37 3 -48 43 -6 23 -13 45
-16 50 -6 10 59 9 75 -2z m173 -11 c16 0 19 -7 19 -46 0 -41 -2 -45 -21 -42
-16 2 -25 15 -35 48 -17 56 -17 53 2 46 9 -3 24 -6 35 -6z m272 -17 c3 -18 -3
-38 -19 -62 l-24 -36 0 63 c0 54 2 62 19 62 12 0 20 -9 24 -27z m-167 -36 c12
-46 12 -47 -12 -47 -22 0 -24 4 -24 51 0 64 19 62 36 -4z m73 -4 l-1 -58 -13
40 c-18 54 -18 75 0 75 12 0 15 -13 14 -57z m-260 -15 c1 -10 -3 -18 -9 -18
-5 0 -10 17 -9 38 0 30 2 33 9 17 5 -11 9 -28 9 -37z m-430 -5 c1 -7 -7 -13
-16 -13 -17 -1 -17 -2 0 -15 13 -9 20 -31 24 -73 l6 -59 -33 -7 c-18 -3 -35
-5 -37 -2 -2 2 -12 33 -22 69 l-18 65 41 41 c35 35 42 39 48 24 3 -10 7 -24 7
-30z m-3809 -78 c0 -62 -162 -599 -190 -628 -4 -5 -53 1 -108 13 l-99 23 52
116 c72 158 143 365 179 523 l6 26 80 -26 c66 -21 80 -30 80 -47z m1900 -51
c53 -108 140 -356 140 -397 0 -18 -17 -32 -89 -70 l-90 -48 -5 33 c-3 18 -12
84 -21 147 -20 137 -46 226 -90 307 l-33 61 62 36 c33 20 64 36 68 37 3 0 30
-48 58 -106z m2088 70 c19 -6 22 -13 22 -55 l0 -49 -38 0 c-37 0 -40 2 -51 41
-7 23 -15 47 -18 55 -6 15 41 19 85 8z m466 -30 c4 -19 9 -41 12 -47 2 -7 -12
-32 -31 -56 l-35 -44 0 92 c0 89 0 91 24 91 19 0 25 -7 30 -36z m-361 -84
c-11 -13 -33 38 -32 74 l1 41 17 -55 c10 -30 16 -57 14 -60z m96 -17 c6 -69
10 -128 8 -130 -2 -2 -12 27 -22 64 -9 38 -26 95 -36 127 -11 33 -19 61 -19
63 0 1 13 3 28 3 l29 0 12 -127z m81 85 c7 -24 23 -82 36 -130 l25 -88 -32
-40 c-18 -22 -34 -39 -36 -37 -3 4 -33 289 -33 320 0 35 29 17 40 -25z m76 19
c3 -13 4 -41 2 -63 -3 -38 -3 -38 -19 24 -14 51 -15 62 -3 62 7 0 16 -11 20
-23z m-676 -56 c0 -34 -3 -39 -27 -44 -33 -6 -43 -1 -43 21 0 20 50 73 62 66
4 -3 8 -22 8 -43z m-3456 18 l49 -14 -7 -100 c-11 -166 -46 -355 -92 -498 -12
-36 -20 -47 -32 -43 -10 3 -52 10 -95 17 -43 6 -80 16 -83 20 -2 5 22 86 54
181 33 95 75 237 93 316 27 113 37 142 49 139 8 -3 37 -11 64 -18z m1394 -64
c28 -44 59 -121 73 -183 17 -75 47 -326 40 -334 -3 -4 -38 -20 -78 -37 l-71
-29 -7 96 c-8 115 -40 343 -59 427 -8 33 -14 60 -13 61 10 4 83 32 87 33 3 0
15 -15 28 -34z m-1143 -3 c22 -6 51 -13 65 -16 23 -5 25 -10 28 -73 4 -93 -14
-263 -44 -412 -14 -68 -27 -127 -29 -131 -4 -7 -182 14 -190 22 -3 2 11 66 30
142 37 147 65 330 65 427 0 53 2 60 18 55 9 -3 35 -9 57 -14z m3661 -78 l22
-76 -22 6 c-11 3 -26 6 -32 6 -16 0 -26 123 -11 132 20 13 21 10 43 -68z
m-576 -9 c0 -68 -2 -75 -19 -75 -11 0 -23 -4 -26 -10 -4 -6 7 -10 24 -10 l31
0 0 -65 0 -65 -30 0 c-16 0 -30 1 -30 3 0 1 -9 49 -20 107 l-20 104 42 43 c23
24 43 43 45 43 2 0 3 -34 3 -75z m132 10 c2 -46 0 -56 -14 -61 -26 -8 -35 1
-42 45 -3 22 -9 46 -12 55 -5 13 1 16 29 16 l35 0 4 -55z m342 24 c12 -61 8
-79 -17 -79 -19 0 -26 8 -36 41 -7 23 -15 47 -18 55 -4 10 4 14 30 14 31 0 35
-3 41 -31z m-2640 -76 c31 -168 47 -318 44 -410 l-3 -88 -98 -19 c-53 -10
-100 -17 -102 -14 -3 3 1 124 10 269 8 145 15 280 15 300 0 36 1 37 48 47 26
5 52 10 57 11 6 0 19 -43 29 -96z m2450 75 c3 -13 6 -33 6 -46 0 -19 -5 -23
-26 -20 -22 2 -29 11 -39 46 l-13 42 33 0 c25 0 34 -5 39 -22z m75 -9 c15 -43
14 -59 -3 -59 -9 0 -15 15 -18 45 -4 52 5 58 21 14z m-3106 5 l77 -6 0 -38 c0
-95 -38 -469 -55 -547 -4 -18 -11 -21 -38 -18 -17 3 -66 7 -108 10 l-76 6 24
102 c38 165 63 336 63 425 0 75 2 83 18 78 9 -2 52 -8 95 -12z m314 -46 c-4
-24 -12 -161 -18 -305 l-13 -263 -64 0 -65 0 6 38 c17 103 39 311 45 427 l7
130 30 6 c17 4 41 7 54 8 22 1 23 -2 18 -41z m2296 -140 l5 -68 -43 0 c-37 0
-43 3 -47 25 -4 18 5 37 36 73 23 27 42 46 43 43 1 -3 3 -36 6 -73z m759 4
l19 -63 -38 -46 c-35 -42 -38 -44 -41 -23 -2 12 2 27 10 31 10 7 9 9 -4 9 -13
0 -18 8 -18 28 0 15 -3 51 -7 80 l-6 53 34 -3 c31 -3 34 -6 51 -66z m-478 21
c10 -61 7 -93 -7 -93 -8 0 -18 21 -25 51 -16 68 -15 79 7 79 14 0 20 -10 25
-37z m76 -37 c18 -65 18 -66 -1 -66 -16 0 -19 7 -19 48 0 26 -3 58 -7 72 -13
54 9 9 27 -54z m84 37 c15 -96 -3 -143 -24 -60 -6 23 -15 54 -20 70 -8 24 -7
27 14 27 19 0 24 -7 30 -37z m113 -33 l21 -70 -34 0 c-39 0 -40 2 -48 83 -6
55 -5 57 17 57 21 0 26 -9 44 -70z m73 48 c0 -13 2 -48 5 -78 l5 -55 -25 75
c-13 41 -25 76 -25 78 0 1 9 2 20 2 14 0 20 -7 20 -22z m-423 -100 c-3 -8 -6
-5 -6 6 -1 11 2 17 5 13 3 -3 4 -12 1 -19z m-347 -118 l0 -90 -50 0 c-49 0
-50 0 -50 31 0 21 14 49 46 90 26 32 49 59 50 59 2 0 4 -40 4 -90z m119 74
l31 -6 0 -74 0 -74 -29 0 c-28 0 -29 3 -40 63 -18 104 -19 102 38 91z m165
-20 c12 -5 16 -21 16 -75 0 -61 -2 -69 -19 -69 -15 0 -20 10 -25 53 -4 28 -10
62 -13 75 -5 23 8 28 41 16z m467 -58 c10 -33 15 -64 12 -70 -4 -6 -24 -33
-45 -59 -34 -44 -38 -46 -42 -25 -10 46 -24 203 -19 211 3 4 21 7 41 5 35 -3
37 -5 53 -62z m-373 -14 c16 -73 15 -82 -8 -82 -18 0 -20 7 -20 77 0 85 10 87
28 5z m66 16 c9 -83 5 -99 -10 -33 -16 72 -17 85 -5 85 4 0 11 -24 15 -52z
m100 1 c9 -28 18 -67 22 -86 l7 -36 -33 7 c-19 3 -34 7 -35 9 -1 1 -5 37 -8
80 -6 72 -5 77 13 77 15 0 23 -12 34 -51z m61 15 c9 -50 1 -52 -12 -4 -5 22
-7 40 -3 40 4 0 11 -16 15 -36z m-398 -91 c-3 -10 -5 -4 -5 12 0 17 2 24 5 18
2 -7 2 -21 0 -30z m-210 -46 c2 -3 2 -30 -2 -61 -7 -56 -8 -56 -41 -56 -26 0
-34 4 -34 19 0 10 -3 40 -7 66 l-6 48 42 -6 c24 -3 45 -8 48 -10z m-167 -102
c-5 -55 -9 -115 -10 -132 0 -24 -5 -33 -17 -34 -16 -1 -16 -2 0 -6 11 -3 16
-10 13 -20 -3 -8 -6 -41 -6 -74 0 -58 0 -59 -29 -59 l-29 0 -7 145 -7 146 46
70 c26 39 49 69 51 67 2 -2 0 -48 -5 -103z m316 85 c10 0 14 -14 14 -50 0 -43
-3 -50 -19 -50 -20 0 -25 9 -36 74 -5 33 -4 38 10 32 9 -3 23 -6 31 -6z m88
-62 c6 -40 5 -48 -8 -48 -13 0 -16 12 -16 57 0 66 14 61 24 -9z m76 -5 c0 -67
-15 -61 -25 10 -6 39 -5 47 9 47 13 0 16 -11 16 -57z m109 -4 c7 -34 11 -63 8
-65 -2 -2 -18 -1 -35 2 -32 6 -32 7 -32 65 0 55 1 59 24 59 21 0 25 -7 35 -61z
m181 -2 c14 -55 13 -58 -7 -78 -31 -31 -73 -19 -73 20 0 15 -3 49 -6 75 l-7
47 39 -3 c38 -3 39 -4 54 -61z m-538 8 c2 -19 0 -35 -4 -35 -4 0 -8 16 -8 35
0 19 2 35 4 35 2 0 6 -16 8 -35z m-88 -71 c11 -4 16 -19 16 -49 0 -36 -4 -44
-22 -48 -12 -4 -23 -5 -24 -4 -2 1 -6 26 -10 55 -7 54 -1 62 40 46z m106 -36
c0 -13 3 -33 6 -45 5 -20 2 -23 -21 -23 -25 0 -27 2 -21 31 3 17 6 38 6 45 0
8 7 14 15 14 9 0 15 -9 15 -22z m80 -35 c0 -54 -15 -48 -25 10 -6 30 -4 37 9
37 12 0 16 -10 16 -47z m-271 -15 c1 -10 -3 -18 -9 -18 -5 0 -10 17 -9 38 0
30 2 33 9 17 5 -11 9 -28 9 -37z m365 40 c3 -7 7 -28 10 -45 5 -30 3 -33 -18
-33 -24 0 -36 21 -36 68 0 15 6 22 20 22 11 0 22 -6 24 -12z m184 -10 c5 -7
15 -37 21 -66 l11 -53 -42 -55 -43 -55 -7 38 c-4 21 -7 75 -7 121 l-1 82 29 0
c16 0 33 -6 39 -12z m-121 -30 c-3 -7 -5 -2 -5 12 0 14 2 19 5 13 2 -7 2 -19
0 -25z m233 12 c-6 -11 -13 -20 -15 -20 -3 0 -5 9 -5 20 0 11 7 20 15 20 13 0
14 -4 5 -20z m-896 -112 c-7 -51 -13 -94 -13 -95 -1 -2 -9 -4 -18 -4 -16 -1
-16 -2 1 -6 15 -4 17 -11 12 -41 -3 -21 -6 -49 -6 -64 0 -21 -5 -28 -20 -28
-19 0 -20 7 -20 104 0 102 1 106 36 165 20 34 37 61 38 61 1 0 -3 -42 -10 -92z
m246 13 c0 -14 3 -43 6 -63 6 -36 5 -38 -20 -38 -24 0 -26 3 -26 48 0 26 3 57
6 69 8 30 34 18 34 -16z m90 -46 c0 -51 -3 -65 -15 -65 -8 0 -15 8 -15 19 0
10 -3 39 -6 65 -6 42 -5 46 15 46 19 0 21 -5 21 -65z m87 59 c17 -5 23 -18 33
-71 6 -36 9 -67 7 -70 -3 -2 -21 -1 -41 2 l-36 7 0 69 c0 38 3 69 8 69 4 0 17
-3 29 -6z m93 -46 c0 -49 -5 -47 -13 5 -3 20 -2 37 4 37 5 0 9 -19 9 -42z
m125 -62 l18 -104 -39 -47 c-21 -26 -39 -43 -40 -39 -1 5 -4 30 -7 57 -3 35
-1 47 9 47 8 0 14 5 14 10 0 6 -7 10 -15 10 -12 0 -15 16 -15 85 l0 85 29 0
c28 0 28 0 46 -104z m-585 -102 c0 -43 -3 -54 -16 -54 -14 0 -16 8 -10 46 3
26 6 53 6 61 0 8 5 11 10 8 6 -3 10 -31 10 -61z m-170 2 c0 -49 -2 -55 -22
-59 l-23 -4 23 -8 c21 -7 22 -12 22 -110 l0 -102 -72 -6 c-40 -3 -74 -4 -76
-2 -10 10 130 345 144 345 2 0 4 -24 4 -54z m244 48 c28 -11 19 -114 -10 -114
-10 0 -14 15 -14 60 0 33 2 60 4 60 2 0 11 -3 20 -6z m142 -70 c3 -30 5 -56 3
-58 -2 -1 -23 -1 -47 2 -33 3 -42 8 -38 19 3 8 6 34 6 57 0 42 0 42 34 38 34
-4 35 -6 42 -58z m64 -11 c0 -68 -5 -67 -13 5 -4 30 -2 52 3 52 6 0 10 -25 10
-57z m149 -5 c27 -162 30 -143 -30 -204 -29 -30 -57 -54 -61 -54 -4 0 -8 36
-8 80 l0 80 53 1 52 1 -52 16 -53 15 0 63 0 64 44 0 44 0 11 -62z m-525 -112
c-16 -125 -22 -134 -23 -34 -1 83 1 97 14 92 12 -5 14 -17 9 -58z m92 36 c6
-4 14 -42 17 -84 l7 -78 -41 0 -41 0 6 38 c3 20 8 58 12 85 6 45 16 55 40 39z
m83 -34 c-1 -13 -5 -34 -9 -48 -7 -20 -8 -16 -9 23 -1 26 4 47 9 47 6 0 10
-10 9 -22z m148 8 c4 -3 23 -140 20 -142 -1 -2 -30 0 -65 3 -70 6 -69 6 -56
105 l6 45 47 -5 c25 -2 47 -5 48 -6z m-413 -182 c12 -4 16 -20 16 -55 l0 -49
-94 0 -94 0 9 43 c15 69 13 67 83 67 35 0 71 -3 80 -6z m210 -41 c11 -70 8
-95 -11 -90 -10 3 -35 8 -57 12 -36 6 -38 8 -32 37 3 17 6 41 6 54 0 22 4 24
44 24 42 0 44 -1 50 -37z m236 -2 c0 -41 -94 -121 -134 -114 -18 4 -25 10 -22
20 3 8 6 39 6 69 l0 54 75 0 75 0 0 -29z m-495 -105 l60 -13 3 -98 3 -98 -46
5 c-55 7 -110 42 -130 85 -8 17 -15 57 -15 88 l0 57 33 -7 c17 -3 59 -12 92
-19z m271 -63 c6 -31 3 -39 -17 -56 -26 -21 -119 -70 -124 -65 -1 2 2 38 8 81
l9 77 59 0 58 0 7 -37z m104 32 c0 -2 -9 -9 -20 -15 -16 -9 -20 -8 -20 5 0 8
9 15 20 15 11 0 20 -2 20 -5z"/>
<path d="M11590 19084 c-206 -14 -336 -37 -486 -85 -101 -32 -200 -96 -408
-265 -118 -96 -137 -117 -120 -134 7 -7 27 -3 65 14 147 67 269 78 879 80 383
1 556 -3 765 -17 273 -19 368 -31 995 -131 378 -61 616 -93 624 -85 8 7 -44
542 -53 552 -15 15 -438 38 -1061 57 -179 6 -442 15 -585 20 -314 12 -365 11
-615 -6z"/>
<path d="M11666 18510 c-171 -27 -325 -95 -483 -214 -88 -66 -187 -156 -171
-156 3 0 53 28 110 62 166 98 353 185 458 212 103 26 312 56 391 56 27 0 49 4
49 10 0 27 -240 48 -354 30z"/>
<path d="M11825 18334 c-89 -16 -204 -53 -280 -91 -75 -38 -342 -200 -400
-243 -64 -48 -133 -122 -140 -153 -10 -37 19 -92 81 -157 111 -116 272 -208
404 -229 111 -18 444 -24 626 -12 127 9 219 9 350 1 314 -19 826 -60 891 -71
80 -14 128 -5 149 27 36 54 -47 291 -146 420 -81 104 -220 212 -415 322 -212
120 -371 165 -649 187 -231 18 -365 18 -471 -1z m687 -125 c167 -33 369 -123
568 -253 177 -115 278 -239 334 -408 31 -91 32 -104 9 -116 -62 -32 -115 -33
-373 -8 -140 14 -326 31 -412 37 -87 7 -158 16 -158 19 0 4 8 15 19 24 29 27
69 124 81 200 25 160 -29 338 -140 460 l-52 56 36 0 c19 0 59 -5 88 -11z
m-248 -20 c22 -7 54 -28 73 -45 27 -26 33 -39 33 -73 0 -56 -12 -77 -63 -103
-39 -21 -55 -23 -202 -23 -151 0 -163 1 -210 25 -39 19 -53 33 -64 62 -12 33
-11 41 5 75 21 41 61 68 132 89 57 16 238 12 296 -7z m-465 -204 c16 -8 32
-22 35 -32 10 -26 -26 -66 -67 -76 -50 -12 -111 17 -115 54 -6 56 82 88 147
54z"/>
<path d="M7500 18051 c-17 -5 10 -9 85 -14 92 -5 259 -37 274 -53 3 -2 -9 -19
-26 -37 -43 -44 -140 -182 -168 -237 -72 -142 -89 -320 -46 -494 20 -83 57
-184 64 -175 2 2 0 51 -5 109 -18 212 4 362 80 537 42 98 131 253 145 253 5 0
44 -19 86 -42 l78 -42 -53 -49 c-69 -63 -129 -153 -144 -217 -13 -52 -6 -160
10 -160 5 0 18 29 29 63 12 35 34 82 49 105 47 72 157 211 164 209 22 -6 126
-158 173 -252 73 -145 106 -287 104 -445 l0 -55 -24 64 c-54 145 -127 186
-248 141 -138 -52 -200 -166 -162 -296 30 -105 98 -186 238 -284 89 -63 108
-125 57 -183 -43 -49 -99 -62 -191 -43 -138 29 -241 98 -298 198 -15 27 -31
45 -34 41 -30 -29 21 -179 80 -235 49 -47 141 -95 214 -113 148 -36 265 -1
336 102 32 47 37 62 38 112 0 77 -38 139 -125 203 -106 78 -177 146 -199 192
-25 51 -27 118 -4 156 19 33 99 80 136 80 34 0 79 -54 106 -124 21 -56 61
-237 61 -275 0 -45 18 -17 43 67 63 213 68 361 21 547 -36 140 -144 316 -270
442 -67 66 -100 90 -176 127 -51 25 -120 53 -153 62 -66 18 -304 28 -345 15z"/>
<path d="M16900 18052 c0 -5 80 -26 178 -46 220 -48 333 -80 394 -113 45 -25
134 -109 171 -162 25 -37 30 -20 11 35 -48 142 -144 214 -339 253 -143 29
-415 50 -415 33z"/>
<path d="M16511 17914 c-284 -34 -427 -89 -626 -238 -83 -62 -390 -365 -380
-374 3 -3 37 25 76 64 l70 69 -25 -56 c-32 -68 -50 -159 -36 -173 6 -6 75 -10
162 -11 132 -1 180 -6 343 -37 400 -77 449 -82 785 -83 277 0 317 2 435 23
223 41 339 87 383 152 30 44 24 80 -31 215 -35 83 -52 110 -102 161 -139 140
-387 268 -569 293 -104 15 -344 12 -485 -5z m608 -121 c128 -51 297 -157 371
-233 34 -35 54 -70 83 -142 20 -53 37 -101 37 -108 0 -21 -125 -69 -245 -94
-121 -25 -245 -42 -245 -34 0 2 9 22 19 45 53 109 49 275 -9 398 -30 62 -94
138 -159 187 l-33 25 58 -9 c32 -5 87 -21 123 -35z m-439 -14 c69 -15 110 -50
110 -96 0 -76 -46 -103 -190 -110 -108 -6 -196 8 -234 38 -49 39 -41 105 17
144 47 30 207 43 297 24z m-380 -164 c23 -12 30 -22 30 -45 0 -39 -32 -60 -93
-60 -38 0 -53 5 -72 25 -14 13 -25 29 -25 35 0 6 11 22 25 35 29 30 89 34 135
10z"/>
<path d="M10852 17673 c16 -64 85 -195 127 -246 93 -111 190 -166 338 -192
110 -18 308 -24 323 -9 14 14 -52 33 -256 74 -83 16 -166 35 -185 42 -107 37
-234 160 -319 311 -17 31 -33 57 -35 57 -2 0 1 -17 7 -37z"/>
<path d="M17650 17053 c-144 -126 -148 -127 -514 -168 -126 -14 -231 -27 -234
-29 -14 -15 201 -36 357 -36 134 1 250 19 307 48 68 35 161 152 179 225 11 43
-12 33 -95 -40z"/>
<path d="M13310 15728 c-105 -60 -273 -188 -247 -188 3 0 34 18 69 39 116 70
246 131 281 131 89 0 95 -94 21 -325 -45 -142 -48 -156 -48 -265 -1 -101 2
-121 23 -165 l24 -50 8 30 c4 17 12 84 18 150 7 84 23 163 51 265 52 186 60
269 32 332 -24 55 -57 79 -115 85 -36 4 -53 -2 -117 -39z"/>
<path d="M13974 15465 c-24 -36 -30 -150 -11 -196 30 -73 121 -149 178 -149
18 0 13 8 -29 48 -81 77 -112 160 -94 255 8 42 7 49 -9 57 -15 8 -22 5 -35
-15z"/>
<path d="M15870 15172 c0 -4 20 -36 45 -69 62 -86 135 -201 135 -214 0 -5 5
-7 10 -4 16 10 11 67 -10 113 -11 24 -51 75 -89 113 -63 63 -91 82 -91 61z"/>
<path d="M12115 15055 c-517 -131 -769 -216 -904 -305 -117 -77 -256 -196
-377 -323 -89 -93 -174 -202 -174 -222 0 -4 40 31 90 78 112 107 323 277 459
369 120 82 163 100 576 243 548 189 675 237 630 235 -6 -1 -140 -34 -300 -75z"/>
<path d="M15762 15018 c-6 -35 -14 -79 -17 -99 -6 -41 -87 -162 -135 -202 -43
-37 -18 -34 41 4 100 64 160 155 158 241 -3 122 -30 155 -47 56z"/>
<path d="M13940 15004 c-30 -8 -102 -37 -160 -64 -99 -47 -149 -61 -263 -75
-58 -8 -57 -20 4 -57 35 -21 69 -30 164 -43 66 -8 181 -27 255 -41 108 -21
151 -25 212 -20 142 12 183 37 158 97 -21 51 -134 164 -193 193 -57 29 -97 31
-177 10z"/>
<path d="M15163 14861 c-65 -30 -138 -105 -209 -213 -97 -148 -187 -198 -331
-185 -91 9 -174 50 -256 127 -86 80 -88 59 -3 -26 43 -43 87 -75 133 -97 63
-29 76 -32 168 -32 81 0 109 4 146 21 62 29 119 82 166 154 58 91 104 99 293
50 168 -44 229 -38 259 24 38 80 -96 178 -263 192 -48 4 -70 1 -103 -15z"/>
<path d="M11374 14666 c-30 -30 -34 -40 -34 -88 0 -119 48 -194 202 -314 59
-46 114 -84 122 -84 7 0 40 -35 71 -77 112 -149 287 -307 435 -390 241 -137
746 -231 1485 -277 198 -12 214 -15 282 -44 107 -45 203 -104 301 -184 159
-129 221 -137 397 -56 123 57 157 67 265 74 63 5 123 0 235 -17 111 -17 196
-23 325 -23 209 -1 253 5 248 37 -3 21 -9 22 -143 29 -77 4 -207 19 -290 33
-82 14 -179 31 -215 37 -82 13 -248 5 -320 -17 -30 -9 -103 -39 -162 -66 -99
-47 -109 -49 -145 -40 -22 6 -79 44 -134 88 -117 94 -235 166 -347 211 -76 31
-98 34 -275 48 -470 35 -970 111 -1244 189 -120 35 -289 120 -398 202 -49 37
-138 116 -197 175 -86 86 -107 113 -106 135 0 16 -13 49 -31 75 -18 26 -50 91
-72 144 -70 173 -118 234 -186 234 -27 0 -43 -8 -69 -34z"/>
<path d="M14260 13752 c0 -4 29 -26 63 -48 145 -97 172 -101 292 -40 87 44
142 82 134 91 -3 2 -50 -12 -104 -31 -142 -51 -165 -52 -255 -13 -87 37 -130
50 -130 41z"/>
<path d="M15925 13633 c19 -100 65 -277 74 -286 13 -13 31 50 31 103 0 64 -24
139 -63 196 -48 71 -57 68 -42 -13z"/>
<path d="M13060 12935 c0 -9 137 -114 225 -173 196 -130 430 -242 599 -288
243 -65 705 -51 862 26 60 29 194 134 201 157 3 7 -34 -5 -81 -27 -165 -76
-183 -80 -398 -80 -232 0 -462 15 -561 36 -169 35 -450 147 -704 280 -79 41
-143 72 -143 69z"/>
</g>
</svg>
